# xmcd
#
# Track frame offsets:
#	150
#	12369
#	25780
#	37391
#	49922
#	65626
#	80145
#	96505
#	111341
#	125688
#	140380
#	158411
#	172568
#	185601
#	198401
#	211913
#	234014
#	251746
#	263476
#	278244
#
# Disc length: 3935 seconds
#
# Revision: 1
# Processed by: cddbd v1.4PL0 Copyright (c) Steve Scherf et al.
# Submitted via: audiograbber 1.80
#
DISCID=1b0f5d14
DTITLE=Sertanejo - Bailão dos Cafagestes Vol 1
DYEAR=1900
DGENRE=
TTITLE0=É Pra Quebrar a Cama
TTITLE1=Nois Não Vive Sem Mulher
TTITLE2=Chupa Chupa
TTITLE3=Cai no Laço
TTITLE4=Enrosca, Enrosca
TTITLE5=Dengo
TTITLE6=Agente se Entrega
TTITLE7=Anarriê
TTITLE8=De São Paulo a Belém
TTITLE9=Tira a Roupa
TTITLE10=Festa de Rodeio
TTITLE11=Vida de Cão
TTITLE12=O Gosto do Meu Amor
TTITLE13=Na Aba do Meu Chapéu
TTITLE14=Peão Apaixonado
TTITLE15=Dixieland Delight
TTITLE16=Chattahooche
TTITLE17=Callin Batton
TTITLE18=Hittin The Hay
TTITLE19=Shoter
EXTD=
EXTT0=
EXTT1=
EXTT2=
EXTT3=
EXTT4=
EXTT5=
EXTT6=
EXTT7=
EXTT8=
EXTT9=
EXTT10=
EXTT11=
EXTT12=
EXTT13=
EXTT14=
EXTT15=
EXTT16=
EXTT17=
EXTT18=
EXTT19=
PLAYORDER=
